<svg width="100" height="39" viewBox="0 0 100 39" fill="none" xmlns="http://www.w3.org/2000/svg">
<g clip-path="url(#clip0_419_1041)">
<path d="M25.6693 37.5477C24.3204 37.5477 23.2265 36.4762 23.2265 35.1549V15.4083H22.9245L17.4417 33.9783C17.3007 34.5305 16.7907 34.9183 16.2068 34.9183H14.7506C14.1667 34.9183 13.6567 34.5305 13.5158 33.9783L7.99934 15.4083H7.69735V35.1615C7.69735 36.4828 6.60347 37.5543 5.25456 37.5543H3.0131C1.6642 37.5543 0.570312 36.4828 0.570312 35.1615V3.02384C0.577023 1.70258 1.67091 0.631104 3.01981 0.631104H9.65695C10.8112 0.631104 11.8045 1.41992 12.0461 2.52426L15.1197 16.6769H15.4686L18.9047 2.47167C19.1664 1.39363 20.1462 0.631104 21.2803 0.631104H27.9175C29.2664 0.631104 30.3536 1.696 30.3603 3.01727L30.4005 35.1549C30.4005 36.4762 29.3066 37.5477 27.9577 37.5477H25.6693Z" fill="#FF7676"/>
<path d="M48.0437 0.631104H51.4864C52.681 0.631104 53.6473 1.57768 53.6473 2.74776V26.1887C53.4997 32.2823 52.9024 33.8468 51.8555 35.5033C50.5603 37.5543 48.3188 38.1853 43.5406 38.1853C38.7624 38.1853 36.474 37.5543 35.1788 35.5033C34.0849 33.8468 33.3333 32.2823 33.3333 26.1887V2.75433C33.3333 1.58426 34.2996 0.637677 35.4942 0.637677H39.1852C40.3798 0.637677 41.3461 1.58426 41.3461 2.75433V26.1887C41.3461 29.6529 41.6951 29.9422 43.6346 29.9422C45.574 29.9422 45.876 29.6464 45.876 26.1887V2.75433C45.876 1.58426 46.8424 0.637677 48.037 0.637677L48.0437 0.631104Z" fill="#FF7676"/>
<path d="M73.7937 23.4081C75.1091 23.4081 76.1962 24.4336 76.2365 25.722C76.2432 26.0638 76.2499 26.399 76.2499 26.7277C76.2499 34.5764 74.9547 38.1853 66.5392 38.1853C61.5596 38.1853 59.2175 37.403 57.929 35.1615C56.6338 33.0185 56.0835 30.1853 56.0835 18.7738C56.0835 7.36228 56.6338 5.16674 57.929 2.92519C59.2242 0.729654 61.5663 0 66.2909 0C74.7534 0 76.1493 3.02379 76.1493 10.8725C76.1493 11.1617 76.1493 11.4773 76.1358 11.7994C76.1023 13.0943 75.0218 14.1395 73.6931 14.1395H71.1429C69.8208 14.1395 68.7337 13.1009 68.7068 11.8059C68.6598 9.74845 68.5323 9.00565 68.3847 8.47977C68.237 7.84872 67.5861 7.55291 66.2909 7.55291C64.9957 7.55291 64.546 7.84872 64.3514 8.47977C64.0024 9.45264 63.8548 10.6753 63.8548 18.6686C63.8548 26.662 64.0024 27.9832 64.3514 29.0547C64.5527 29.6858 65.0493 29.9356 66.5392 29.9356C67.5861 29.9356 68.1297 29.6923 68.331 29.1073C68.68 28.1541 68.8075 27.2273 68.8545 25.7285C68.8947 24.4336 69.9685 23.4015 71.2905 23.4015H73.787L73.7937 23.4081Z" fill="#FF7676"/>
<path d="M91.9872 35.1615V24.7754C91.9872 23.4542 90.8933 22.3827 89.5444 22.3827C88.1955 22.3827 87.1016 23.4542 87.1016 24.7754V35.1615C87.1016 36.4828 86.0077 37.5543 84.6588 37.5543H81.5248C80.1759 37.5543 79.082 36.4828 79.082 35.1615V3.02384C79.082 1.70258 80.1759 0.631104 81.5248 0.631104H84.6588C86.0077 0.631104 87.1016 1.70258 87.1016 3.02384V12.5356C87.1016 13.8569 88.1955 14.9284 89.5444 14.9284C90.8933 14.9284 91.9872 13.8569 91.9872 12.5356V3.02384C91.9872 1.70258 93.0811 0.631104 94.43 0.631104H97.564C98.9129 0.631104 100.007 1.70258 100.007 3.02384V35.1615C100.007 36.4828 98.9129 37.5543 97.564 37.5543H94.43C93.0811 37.5543 91.9872 36.4828 91.9872 35.1615Z" fill="#FF7676"/>
<path d="M95.9601 10.5766C98.1876 10.5766 99.9933 8.80783 99.9933 6.62594C99.9933 4.44406 98.1876 2.67529 95.9601 2.67529C93.7325 2.67529 91.9268 4.44406 91.9268 6.62594C91.9268 8.80783 93.7325 10.5766 95.9601 10.5766Z" fill="#F91E1E"/>
<path d="M72.304 15.934C74.4833 15.934 76.25 14.2035 76.25 12.0688C76.25 9.93412 74.4833 8.20361 72.304 8.20361C70.1246 8.20361 68.3579 9.93412 68.3579 12.0688C68.3579 14.2035 70.1246 15.934 72.304 15.934Z" fill="#F91E1E"/>
<path d="M49.7014 21.3244C51.8808 21.3244 53.6475 19.5939 53.6475 17.4592C53.6475 15.3245 51.8808 13.594 49.7014 13.594C47.5221 13.594 45.7554 15.3245 45.7554 17.4592C45.7554 19.5939 47.5221 21.3244 49.7014 21.3244Z" fill="#F91E1E"/>
<path d="M3.94604 38.3495C6.12538 38.3495 7.89209 36.619 7.89209 34.4843C7.89209 32.3496 6.12538 30.6191 3.94604 30.6191C1.7667 30.6191 0 32.3496 0 34.4843C0 36.619 1.7667 38.3495 3.94604 38.3495Z" fill="#F91E1E"/>
</g>
<defs>
<clipPath id="clip0_419_1041">
<rect width="100" height="38.3562" fill="white"/>
</clipPath>
</defs>
</svg>
